<mxfile host="app.diagrams.net" modified="2023-06-26T00:19:43.548Z" agent="Mozilla/5.0 (Windows NT 10.0; Win64; x64) AppleWebKit/537.36 (KHTML, like Gecko) Chrome/114.0.0.0 Safari/537.36" etag="AijhTHZSre_i3OFG7t3X" version="21.5.0" type="device">
  <diagram id="gMeY4CiZzxiTSthGEyME" name="Page-1">
    <mxGraphModel dx="2160" dy="2140" grid="1" gridSize="10" guides="1" tooltips="1" connect="1" arrows="1" fold="1" page="0" pageScale="1" pageWidth="1100" pageHeight="850" math="0" shadow="0">
      <root>
        <mxCell id="0" />
        <mxCell id="1" parent="0" />
        <mxCell id="HzVAY1CZKWsbAnJS4__g-11" style="edgeStyle=none;rounded=0;orthogonalLoop=1;jettySize=auto;html=1;entryX=1;entryY=0.5;entryDx=0;entryDy=0;endArrow=none;endFill=0;" parent="1" source="HzVAY1CZKWsbAnJS4__g-1" target="HzVAY1CZKWsbAnJS4__g-2" edge="1">
          <mxGeometry relative="1" as="geometry" />
        </mxCell>
        <mxCell id="HzVAY1CZKWsbAnJS4__g-12" style="edgeStyle=none;rounded=0;orthogonalLoop=1;jettySize=auto;html=1;entryX=1;entryY=0;entryDx=0;entryDy=0;endArrow=none;endFill=0;" parent="1" source="HzVAY1CZKWsbAnJS4__g-1" target="HzVAY1CZKWsbAnJS4__g-4" edge="1">
          <mxGeometry relative="1" as="geometry" />
        </mxCell>
        <mxCell id="HzVAY1CZKWsbAnJS4__g-13" style="edgeStyle=none;rounded=0;orthogonalLoop=1;jettySize=auto;html=1;entryX=1;entryY=0;entryDx=0;entryDy=0;endArrow=none;endFill=0;" parent="1" source="HzVAY1CZKWsbAnJS4__g-1" target="HzVAY1CZKWsbAnJS4__g-6" edge="1">
          <mxGeometry relative="1" as="geometry" />
        </mxCell>
        <mxCell id="HzVAY1CZKWsbAnJS4__g-14" style="edgeStyle=none;rounded=0;orthogonalLoop=1;jettySize=auto;html=1;exitX=0.25;exitY=1;exitDx=0;exitDy=0;entryX=0.591;entryY=0.012;entryDx=0;entryDy=0;endArrow=none;endFill=0;entryPerimeter=0;" parent="1" source="HzVAY1CZKWsbAnJS4__g-1" target="HzVAY1CZKWsbAnJS4__g-7" edge="1">
          <mxGeometry relative="1" as="geometry" />
        </mxCell>
        <mxCell id="HzVAY1CZKWsbAnJS4__g-15" style="edgeStyle=none;rounded=0;orthogonalLoop=1;jettySize=auto;html=1;exitX=0.5;exitY=1;exitDx=0;exitDy=0;entryX=0.5;entryY=0;entryDx=0;entryDy=0;endArrow=none;endFill=0;" parent="1" source="HzVAY1CZKWsbAnJS4__g-1" target="HzVAY1CZKWsbAnJS4__g-5" edge="1">
          <mxGeometry relative="1" as="geometry" />
        </mxCell>
        <mxCell id="HzVAY1CZKWsbAnJS4__g-17" style="edgeStyle=none;rounded=0;orthogonalLoop=1;jettySize=auto;html=1;entryX=1;entryY=1;entryDx=0;entryDy=0;endArrow=none;endFill=0;" parent="1" source="HzVAY1CZKWsbAnJS4__g-1" target="HzVAY1CZKWsbAnJS4__g-16" edge="1">
          <mxGeometry relative="1" as="geometry" />
        </mxCell>
        <mxCell id="HzVAY1CZKWsbAnJS4__g-20" value="" style="edgeStyle=none;rounded=0;orthogonalLoop=1;jettySize=auto;html=1;endArrow=none;endFill=0;" parent="1" source="HzVAY1CZKWsbAnJS4__g-1" target="HzVAY1CZKWsbAnJS4__g-18" edge="1">
          <mxGeometry relative="1" as="geometry" />
        </mxCell>
        <mxCell id="HzVAY1CZKWsbAnJS4__g-34" value="" style="edgeStyle=none;rounded=0;orthogonalLoop=1;jettySize=auto;html=1;endArrow=none;endFill=0;exitX=0.75;exitY=1;exitDx=0;exitDy=0;" parent="1" source="HzVAY1CZKWsbAnJS4__g-1" target="HzVAY1CZKWsbAnJS4__g-33" edge="1">
          <mxGeometry relative="1" as="geometry" />
        </mxCell>
        <mxCell id="2QGJPH2X2eXKXfC0UT2v-19" style="edgeStyle=none;rounded=0;orthogonalLoop=1;jettySize=auto;html=1;exitX=0.75;exitY=0;exitDx=0;exitDy=0;entryX=0;entryY=0.5;entryDx=0;entryDy=0;endArrow=none;endFill=0;" parent="1" source="HzVAY1CZKWsbAnJS4__g-1" target="2QGJPH2X2eXKXfC0UT2v-16" edge="1">
          <mxGeometry relative="1" as="geometry">
            <Array as="points">
              <mxPoint x="510" y="-140" />
            </Array>
          </mxGeometry>
        </mxCell>
        <mxCell id="2QGJPH2X2eXKXfC0UT2v-56" value="" style="edgeStyle=none;rounded=0;orthogonalLoop=1;jettySize=auto;html=1;endArrow=none;endFill=0;entryX=0.5;entryY=1;entryDx=0;entryDy=0;exitX=1;exitY=0.5;exitDx=0;exitDy=0;" parent="1" source="HzVAY1CZKWsbAnJS4__g-1" target="2QGJPH2X2eXKXfC0UT2v-55" edge="1">
          <mxGeometry relative="1" as="geometry">
            <Array as="points">
              <mxPoint x="1150" y="220" />
            </Array>
          </mxGeometry>
        </mxCell>
        <mxCell id="HzVAY1CZKWsbAnJS4__g-1" value="&lt;b&gt;User&lt;/b&gt;" style="rounded=0;whiteSpace=wrap;html=1;" parent="1" vertex="1">
          <mxGeometry x="418" y="182" width="120" height="60" as="geometry" />
        </mxCell>
        <mxCell id="HzVAY1CZKWsbAnJS4__g-24" value="" style="edgeStyle=none;rounded=0;orthogonalLoop=1;jettySize=auto;html=1;endArrow=none;endFill=0;" parent="1" source="HzVAY1CZKWsbAnJS4__g-2" target="HzVAY1CZKWsbAnJS4__g-22" edge="1">
          <mxGeometry relative="1" as="geometry" />
        </mxCell>
        <mxCell id="HzVAY1CZKWsbAnJS4__g-25" value="" style="edgeStyle=none;rounded=0;orthogonalLoop=1;jettySize=auto;html=1;endArrow=none;endFill=0;" parent="1" source="HzVAY1CZKWsbAnJS4__g-2" target="HzVAY1CZKWsbAnJS4__g-22" edge="1">
          <mxGeometry relative="1" as="geometry" />
        </mxCell>
        <mxCell id="HzVAY1CZKWsbAnJS4__g-27" style="edgeStyle=none;rounded=0;orthogonalLoop=1;jettySize=auto;html=1;exitX=0.021;exitY=0.379;exitDx=0;exitDy=0;endArrow=none;endFill=0;exitPerimeter=0;" parent="1" source="HzVAY1CZKWsbAnJS4__g-2" target="HzVAY1CZKWsbAnJS4__g-23" edge="1">
          <mxGeometry relative="1" as="geometry" />
        </mxCell>
        <mxCell id="HzVAY1CZKWsbAnJS4__g-2" value="&lt;b&gt;Full Name&lt;br&gt;&lt;/b&gt;" style="ellipse;whiteSpace=wrap;html=1;strokeColor=default;" parent="1" vertex="1">
          <mxGeometry x="98" y="162" width="120" height="80" as="geometry" />
        </mxCell>
        <mxCell id="HzVAY1CZKWsbAnJS4__g-4" value="&lt;b&gt;Email&lt;br&gt;&lt;/b&gt;" style="ellipse;whiteSpace=wrap;html=1;" parent="1" vertex="1">
          <mxGeometry x="118" y="252" width="120" height="80" as="geometry" />
        </mxCell>
        <mxCell id="HzVAY1CZKWsbAnJS4__g-5" value="&lt;b&gt;Password&lt;br&gt;&lt;/b&gt;" style="ellipse;whiteSpace=wrap;html=1;" parent="1" vertex="1">
          <mxGeometry x="458" y="362" width="120" height="80" as="geometry" />
        </mxCell>
        <mxCell id="HzVAY1CZKWsbAnJS4__g-6" value="&lt;b&gt;Date of Birth&lt;br&gt;&lt;/b&gt;" style="ellipse;whiteSpace=wrap;html=1;" parent="1" vertex="1">
          <mxGeometry x="208" y="312" width="120" height="80" as="geometry" />
        </mxCell>
        <mxCell id="HzVAY1CZKWsbAnJS4__g-7" value="&lt;b&gt;Age&lt;br&gt;&lt;/b&gt;" style="ellipse;whiteSpace=wrap;html=1;dashed=1;" parent="1" vertex="1">
          <mxGeometry x="330" y="342" width="120" height="80" as="geometry" />
        </mxCell>
        <mxCell id="HzVAY1CZKWsbAnJS4__g-16" value="&lt;b&gt;Account Type&lt;br&gt;&lt;/b&gt;" style="ellipse;whiteSpace=wrap;html=1;" parent="1" vertex="1">
          <mxGeometry x="118" y="72" width="120" height="80" as="geometry" />
        </mxCell>
        <mxCell id="HzVAY1CZKWsbAnJS4__g-18" value="&lt;b&gt;Username&lt;br&gt;&lt;/b&gt;" style="ellipse;whiteSpace=wrap;html=1;" parent="1" vertex="1">
          <mxGeometry x="208" y="2" width="120" height="80" as="geometry" />
        </mxCell>
        <mxCell id="HzVAY1CZKWsbAnJS4__g-22" value="&lt;b&gt;First Name&lt;/b&gt;" style="ellipse;whiteSpace=wrap;html=1;strokeColor=default;" parent="1" vertex="1">
          <mxGeometry x="-72" y="211" width="120" height="80" as="geometry" />
        </mxCell>
        <mxCell id="HzVAY1CZKWsbAnJS4__g-23" value="&lt;b&gt;Last Name&lt;/b&gt;" style="ellipse;whiteSpace=wrap;html=1;strokeColor=default;" parent="1" vertex="1">
          <mxGeometry x="-72" y="122" width="120" height="80" as="geometry" />
        </mxCell>
        <mxCell id="HzVAY1CZKWsbAnJS4__g-29" style="edgeStyle=none;rounded=0;orthogonalLoop=1;jettySize=auto;html=1;endArrow=none;endFill=0;" parent="1" source="HzVAY1CZKWsbAnJS4__g-31" target="HzVAY1CZKWsbAnJS4__g-35" edge="1">
          <mxGeometry relative="1" as="geometry">
            <mxPoint x="672.4264068711868" y="-701.7157287525421" as="targetPoint" />
            <mxPoint x="880" y="-720" as="sourcePoint" />
          </mxGeometry>
        </mxCell>
        <mxCell id="HzVAY1CZKWsbAnJS4__g-30" value="" style="edgeStyle=none;rounded=0;orthogonalLoop=1;jettySize=auto;html=1;endArrow=none;endFill=0;" parent="1" source="HzVAY1CZKWsbAnJS4__g-31" target="HzVAY1CZKWsbAnJS4__g-32" edge="1">
          <mxGeometry relative="1" as="geometry" />
        </mxCell>
        <mxCell id="HzVAY1CZKWsbAnJS4__g-41" style="edgeStyle=none;rounded=0;orthogonalLoop=1;jettySize=auto;html=1;endArrow=none;endFill=0;" parent="1" source="HzVAY1CZKWsbAnJS4__g-31" target="HzVAY1CZKWsbAnJS4__g-36" edge="1">
          <mxGeometry relative="1" as="geometry" />
        </mxCell>
        <mxCell id="HzVAY1CZKWsbAnJS4__g-48" style="edgeStyle=none;rounded=0;orthogonalLoop=1;jettySize=auto;html=1;endArrow=none;endFill=0;" parent="1" source="HzVAY1CZKWsbAnJS4__g-31" target="HzVAY1CZKWsbAnJS4__g-47" edge="1">
          <mxGeometry relative="1" as="geometry" />
        </mxCell>
        <mxCell id="HzVAY1CZKWsbAnJS4__g-51" style="edgeStyle=none;rounded=0;orthogonalLoop=1;jettySize=auto;html=1;endArrow=none;endFill=0;entryX=0.433;entryY=0.981;entryDx=0;entryDy=0;entryPerimeter=0;" parent="1" source="HzVAY1CZKWsbAnJS4__g-31" target="HzVAY1CZKWsbAnJS4__g-50" edge="1">
          <mxGeometry relative="1" as="geometry">
            <mxPoint x="890" y="-770" as="targetPoint" />
          </mxGeometry>
        </mxCell>
        <mxCell id="2QGJPH2X2eXKXfC0UT2v-11" value="" style="edgeStyle=none;rounded=0;orthogonalLoop=1;jettySize=auto;html=1;endArrow=none;endFill=0;" parent="1" source="HzVAY1CZKWsbAnJS4__g-31" target="2QGJPH2X2eXKXfC0UT2v-10" edge="1">
          <mxGeometry relative="1" as="geometry" />
        </mxCell>
        <mxCell id="2QGJPH2X2eXKXfC0UT2v-22" style="edgeStyle=none;rounded=0;orthogonalLoop=1;jettySize=auto;html=1;exitX=0.5;exitY=1;exitDx=0;exitDy=0;entryX=0.5;entryY=0;entryDx=0;entryDy=0;endArrow=none;endFill=0;" parent="1" source="HzVAY1CZKWsbAnJS4__g-31" target="2QGJPH2X2eXKXfC0UT2v-20" edge="1">
          <mxGeometry relative="1" as="geometry">
            <Array as="points">
              <mxPoint x="790" y="-480" />
            </Array>
          </mxGeometry>
        </mxCell>
        <mxCell id="2QGJPH2X2eXKXfC0UT2v-36" value="" style="edgeStyle=none;rounded=0;orthogonalLoop=1;jettySize=auto;html=1;endArrow=none;endFill=0;" parent="1" source="HzVAY1CZKWsbAnJS4__g-31" target="2QGJPH2X2eXKXfC0UT2v-35" edge="1">
          <mxGeometry relative="1" as="geometry" />
        </mxCell>
        <mxCell id="HzVAY1CZKWsbAnJS4__g-31" value="&lt;b&gt;Question&lt;/b&gt;" style="rounded=0;whiteSpace=wrap;html=1;" parent="1" vertex="1">
          <mxGeometry x="730" y="-567" width="120" height="60" as="geometry" />
        </mxCell>
        <mxCell id="HzVAY1CZKWsbAnJS4__g-32" value="&lt;b&gt;&lt;u&gt;ID&lt;/u&gt;&lt;br&gt;&lt;/b&gt;" style="ellipse;whiteSpace=wrap;html=1;" parent="1" vertex="1">
          <mxGeometry x="730" y="-850" width="120" height="60" as="geometry" />
        </mxCell>
        <mxCell id="HzVAY1CZKWsbAnJS4__g-33" value="&lt;b&gt;&lt;u&gt;ID&lt;/u&gt;&lt;br&gt;&lt;/b&gt;" style="ellipse;whiteSpace=wrap;html=1;" parent="1" vertex="1">
          <mxGeometry x="588" y="342" width="120" height="80" as="geometry" />
        </mxCell>
        <mxCell id="HzVAY1CZKWsbAnJS4__g-35" value="&lt;b&gt;Question&lt;br&gt;&lt;/b&gt;" style="ellipse;whiteSpace=wrap;html=1;" parent="1" vertex="1">
          <mxGeometry x="622" y="-810" width="120" height="60" as="geometry" />
        </mxCell>
        <mxCell id="2QGJPH2X2eXKXfC0UT2v-13" style="edgeStyle=none;rounded=0;orthogonalLoop=1;jettySize=auto;html=1;endArrow=none;endFill=0;" parent="1" source="HzVAY1CZKWsbAnJS4__g-42" target="HzVAY1CZKWsbAnJS4__g-43" edge="1">
          <mxGeometry relative="1" as="geometry" />
        </mxCell>
        <mxCell id="2QGJPH2X2eXKXfC0UT2v-17" value="" style="edgeStyle=none;rounded=0;orthogonalLoop=1;jettySize=auto;html=1;endArrow=none;endFill=0;shape=link;" parent="1" source="HzVAY1CZKWsbAnJS4__g-42" target="2QGJPH2X2eXKXfC0UT2v-16" edge="1">
          <mxGeometry relative="1" as="geometry" />
        </mxCell>
        <mxCell id="2QGJPH2X2eXKXfC0UT2v-21" value="v" style="edgeStyle=none;rounded=0;orthogonalLoop=1;jettySize=auto;html=1;endArrow=none;endFill=0;shape=link;entryX=0.493;entryY=1;entryDx=0;entryDy=0;entryPerimeter=0;" parent="1" target="bXbsKiOWPpMgaX-bGDvC-37" edge="1">
          <mxGeometry relative="1" as="geometry">
            <mxPoint x="1119.41" y="-300" as="sourcePoint" />
            <mxPoint x="1119.41" y="-440" as="targetPoint" />
          </mxGeometry>
        </mxCell>
        <mxCell id="HzVAY1CZKWsbAnJS4__g-42" value="&lt;b&gt;Interview&lt;/b&gt;" style="rounded=0;whiteSpace=wrap;html=1;strokeColor=default;" parent="1" vertex="1">
          <mxGeometry x="730" y="-170" width="120" height="60" as="geometry" />
        </mxCell>
        <mxCell id="HzVAY1CZKWsbAnJS4__g-43" value="&lt;b&gt;Tittle&lt;br&gt;&lt;/b&gt;" style="ellipse;whiteSpace=wrap;html=1;" parent="1" vertex="1">
          <mxGeometry x="588" y="-281.08" width="100" height="50" as="geometry" />
        </mxCell>
        <mxCell id="HzVAY1CZKWsbAnJS4__g-47" value="&lt;b&gt;Visibility&lt;br&gt;&lt;/b&gt;" style="ellipse;whiteSpace=wrap;html=1;" parent="1" vertex="1">
          <mxGeometry x="480" y="-649.9999999999999" width="120" height="60" as="geometry" />
        </mxCell>
        <mxCell id="HzVAY1CZKWsbAnJS4__g-50" value="&lt;b&gt;Topic&lt;br&gt;&lt;/b&gt;" style="ellipse;whiteSpace=wrap;html=1;" parent="1" vertex="1">
          <mxGeometry x="950" y="-741.66" width="120" height="60" as="geometry" />
        </mxCell>
        <mxCell id="2QGJPH2X2eXKXfC0UT2v-10" value="&lt;b&gt;Level&lt;/b&gt;" style="ellipse;whiteSpace=wrap;html=1;rounded=0;" parent="1" vertex="1">
          <mxGeometry x="986.5" y="-650.0000000000001" width="120" height="60" as="geometry" />
        </mxCell>
        <mxCell id="2QGJPH2X2eXKXfC0UT2v-16" value="&lt;b&gt;Created By&lt;/b&gt;" style="rhombus;whiteSpace=wrap;html=1;rounded=0;" parent="1" vertex="1">
          <mxGeometry x="578" y="-180" width="80" height="80" as="geometry" />
        </mxCell>
        <mxCell id="2QGJPH2X2eXKXfC0UT2v-20" value="&lt;b&gt;Contains&lt;/b&gt;" style="rhombus;whiteSpace=wrap;html=1;rounded=0;" parent="1" vertex="1">
          <mxGeometry x="750" y="-390" width="80" height="80" as="geometry" />
        </mxCell>
        <mxCell id="2QGJPH2X2eXKXfC0UT2v-23" value="&lt;b&gt;N&lt;/b&gt;" style="text;html=1;strokeColor=none;fillColor=none;align=center;verticalAlign=middle;whiteSpace=wrap;rounded=0;" parent="1" vertex="1">
          <mxGeometry x="750" y="-510" width="60" height="30" as="geometry" />
        </mxCell>
        <mxCell id="2QGJPH2X2eXKXfC0UT2v-24" value="&lt;b&gt;M&lt;/b&gt;" style="text;html=1;strokeColor=none;fillColor=none;align=center;verticalAlign=middle;whiteSpace=wrap;rounded=0;" parent="1" vertex="1">
          <mxGeometry x="740" y="-201" width="60" height="30" as="geometry" />
        </mxCell>
        <mxCell id="2QGJPH2X2eXKXfC0UT2v-25" value="&lt;b&gt;1&lt;/b&gt;" style="text;html=1;strokeColor=none;fillColor=none;align=center;verticalAlign=middle;whiteSpace=wrap;rounded=0;" parent="1" vertex="1">
          <mxGeometry x="510" y="132" width="30" height="30" as="geometry" />
        </mxCell>
        <mxCell id="2QGJPH2X2eXKXfC0UT2v-28" value="&lt;b&gt;M&lt;/b&gt;" style="text;html=1;strokeColor=none;fillColor=none;align=center;verticalAlign=middle;whiteSpace=wrap;rounded=0;" parent="1" vertex="1">
          <mxGeometry x="681" y="-168" width="60" height="30" as="geometry" />
        </mxCell>
        <mxCell id="2QGJPH2X2eXKXfC0UT2v-30" style="edgeStyle=none;rounded=0;orthogonalLoop=1;jettySize=auto;html=1;exitX=0.5;exitY=0;exitDx=0;exitDy=0;entryX=0.002;entryY=0.633;entryDx=0;entryDy=0;endArrow=none;endFill=0;shape=link;entryPerimeter=0;" parent="1" source="2QGJPH2X2eXKXfC0UT2v-29" target="HzVAY1CZKWsbAnJS4__g-31" edge="1">
          <mxGeometry relative="1" as="geometry">
            <Array as="points">
              <mxPoint x="448" y="-529" />
            </Array>
          </mxGeometry>
        </mxCell>
        <mxCell id="2QGJPH2X2eXKXfC0UT2v-31" style="edgeStyle=none;rounded=0;orthogonalLoop=1;jettySize=auto;html=1;exitX=0.5;exitY=1;exitDx=0;exitDy=0;entryX=0.25;entryY=0;entryDx=0;entryDy=0;endArrow=none;endFill=0;" parent="1" source="2QGJPH2X2eXKXfC0UT2v-29" target="HzVAY1CZKWsbAnJS4__g-1" edge="1">
          <mxGeometry relative="1" as="geometry" />
        </mxCell>
        <mxCell id="2QGJPH2X2eXKXfC0UT2v-29" value="&lt;b&gt;Created By&lt;/b&gt;" style="rhombus;whiteSpace=wrap;html=1;" parent="1" vertex="1">
          <mxGeometry x="408" y="-251.00000000000003" width="80" height="80" as="geometry" />
        </mxCell>
        <mxCell id="2QGJPH2X2eXKXfC0UT2v-32" style="edgeStyle=none;rounded=0;orthogonalLoop=1;jettySize=auto;html=1;exitX=0.5;exitY=1;exitDx=0;exitDy=0;endArrow=none;endFill=0;" parent="1" source="HzVAY1CZKWsbAnJS4__g-18" target="HzVAY1CZKWsbAnJS4__g-18" edge="1">
          <mxGeometry relative="1" as="geometry" />
        </mxCell>
        <mxCell id="2QGJPH2X2eXKXfC0UT2v-33" value="&lt;b&gt;M&lt;/b&gt;" style="text;html=1;strokeColor=none;fillColor=none;align=center;verticalAlign=middle;whiteSpace=wrap;rounded=0;" parent="1" vertex="1">
          <mxGeometry x="675" y="-555" width="60" height="30" as="geometry" />
        </mxCell>
        <mxCell id="2QGJPH2X2eXKXfC0UT2v-34" value="&lt;b&gt;1&lt;/b&gt;" style="text;html=1;strokeColor=none;fillColor=none;align=center;verticalAlign=middle;whiteSpace=wrap;rounded=0;" parent="1" vertex="1">
          <mxGeometry x="418" y="132" width="39" height="30" as="geometry" />
        </mxCell>
        <mxCell id="2QGJPH2X2eXKXfC0UT2v-35" value="&lt;b&gt;Type&lt;/b&gt;" style="ellipse;whiteSpace=wrap;html=1;rounded=0;" parent="1" vertex="1">
          <mxGeometry x="850" y="-810" width="120" height="60" as="geometry" />
        </mxCell>
        <mxCell id="2QGJPH2X2eXKXfC0UT2v-37" value="" style="group" parent="1" vertex="1" connectable="0">
          <mxGeometry x="530" y="-750" width="128.27" height="76.67000000000002" as="geometry" />
        </mxCell>
        <mxCell id="HzVAY1CZKWsbAnJS4__g-40" value="" style="ellipse;whiteSpace=wrap;html=1;strokeColor=default;" parent="2QGJPH2X2eXKXfC0UT2v-37" vertex="1">
          <mxGeometry width="128.27" height="76.67" as="geometry" />
        </mxCell>
        <mxCell id="HzVAY1CZKWsbAnJS4__g-36" value="&lt;b&gt;Answer&lt;br&gt;&lt;/b&gt;" style="ellipse;whiteSpace=wrap;html=1;" parent="2QGJPH2X2eXKXfC0UT2v-37" vertex="1">
          <mxGeometry x="4.1299999999999955" y="4.159999999999968" width="120" height="68.33" as="geometry" />
        </mxCell>
        <mxCell id="2QGJPH2X2eXKXfC0UT2v-40" value="" style="edgeStyle=none;rounded=0;orthogonalLoop=1;jettySize=auto;html=1;endArrow=none;endFill=0;" parent="1" source="2QGJPH2X2eXKXfC0UT2v-38" target="2QGJPH2X2eXKXfC0UT2v-39" edge="1">
          <mxGeometry relative="1" as="geometry" />
        </mxCell>
        <mxCell id="2QGJPH2X2eXKXfC0UT2v-42" value="" style="edgeStyle=none;rounded=0;orthogonalLoop=1;jettySize=auto;html=1;endArrow=none;endFill=0;" parent="1" source="2QGJPH2X2eXKXfC0UT2v-38" target="2QGJPH2X2eXKXfC0UT2v-41" edge="1">
          <mxGeometry relative="1" as="geometry" />
        </mxCell>
        <mxCell id="2QGJPH2X2eXKXfC0UT2v-44" value="" style="edgeStyle=none;rounded=0;orthogonalLoop=1;jettySize=auto;html=1;endArrow=none;endFill=0;" parent="1" source="2QGJPH2X2eXKXfC0UT2v-38" target="2QGJPH2X2eXKXfC0UT2v-43" edge="1">
          <mxGeometry relative="1" as="geometry" />
        </mxCell>
        <mxCell id="2QGJPH2X2eXKXfC0UT2v-46" value="" style="edgeStyle=none;rounded=0;orthogonalLoop=1;jettySize=auto;html=1;endArrow=none;endFill=0;" parent="1" source="2QGJPH2X2eXKXfC0UT2v-38" target="2QGJPH2X2eXKXfC0UT2v-45" edge="1">
          <mxGeometry relative="1" as="geometry" />
        </mxCell>
        <mxCell id="2QGJPH2X2eXKXfC0UT2v-48" value="" style="edgeStyle=none;rounded=0;orthogonalLoop=1;jettySize=auto;html=1;endArrow=none;endFill=0;" parent="1" source="2QGJPH2X2eXKXfC0UT2v-38" target="2QGJPH2X2eXKXfC0UT2v-47" edge="1">
          <mxGeometry relative="1" as="geometry" />
        </mxCell>
        <mxCell id="2QGJPH2X2eXKXfC0UT2v-38" value="&lt;b&gt;Report&lt;/b&gt;" style="rounded=0;whiteSpace=wrap;html=1;" parent="1" vertex="1">
          <mxGeometry x="1090" y="-170" width="120" height="60" as="geometry" />
        </mxCell>
        <mxCell id="2QGJPH2X2eXKXfC0UT2v-39" value="&lt;b&gt;&lt;u&gt;ID&lt;/u&gt;&lt;/b&gt;" style="ellipse;whiteSpace=wrap;html=1;rounded=0;" parent="1" vertex="1">
          <mxGeometry x="1100" y="-300" width="120" height="60" as="geometry" />
        </mxCell>
        <mxCell id="2QGJPH2X2eXKXfC0UT2v-41" value="&lt;b&gt;Score&lt;/b&gt;" style="ellipse;whiteSpace=wrap;html=1;rounded=0;" parent="1" vertex="1">
          <mxGeometry x="1000" y="-251" width="120" height="60" as="geometry" />
        </mxCell>
        <mxCell id="2QGJPH2X2eXKXfC0UT2v-43" value="Summary" style="ellipse;whiteSpace=wrap;html=1;rounded=0;" parent="1" vertex="1">
          <mxGeometry x="1210" y="-251" width="120" height="60" as="geometry" />
        </mxCell>
        <mxCell id="2QGJPH2X2eXKXfC0UT2v-59" style="edgeStyle=none;rounded=0;orthogonalLoop=1;jettySize=auto;html=1;exitX=0;exitY=0.5;exitDx=0;exitDy=0;entryX=0.5;entryY=1;entryDx=0;entryDy=0;endArrow=none;endFill=0;shape=link;" parent="1" source="2QGJPH2X2eXKXfC0UT2v-55" target="HzVAY1CZKWsbAnJS4__g-42" edge="1">
          <mxGeometry relative="1" as="geometry">
            <Array as="points">
              <mxPoint x="790" y="50" />
            </Array>
          </mxGeometry>
        </mxCell>
        <mxCell id="MYLzribXJYFH4d9hLqWY-2" value="" style="rounded=0;orthogonalLoop=1;jettySize=auto;html=1;endArrow=none;endFill=0;" parent="1" source="2QGJPH2X2eXKXfC0UT2v-55" target="MYLzribXJYFH4d9hLqWY-1" edge="1">
          <mxGeometry relative="1" as="geometry" />
        </mxCell>
        <mxCell id="MYLzribXJYFH4d9hLqWY-13" style="edgeStyle=none;rounded=0;orthogonalLoop=1;jettySize=auto;html=1;exitX=0.5;exitY=0;exitDx=0;exitDy=0;entryX=0.5;entryY=1;entryDx=0;entryDy=0;endArrow=none;endFill=0;" parent="1" source="2QGJPH2X2eXKXfC0UT2v-55" target="2QGJPH2X2eXKXfC0UT2v-38" edge="1">
          <mxGeometry relative="1" as="geometry">
            <Array as="points" />
          </mxGeometry>
        </mxCell>
        <mxCell id="2QGJPH2X2eXKXfC0UT2v-55" value="&lt;b&gt;Attend&lt;br&gt;&lt;/b&gt;" style="rhombus;whiteSpace=wrap;html=1;rounded=0;" parent="1" vertex="1">
          <mxGeometry x="1110" y="10" width="80" height="80" as="geometry" />
        </mxCell>
        <mxCell id="2QGJPH2X2eXKXfC0UT2v-60" value="&lt;b&gt;M&lt;/b&gt;" style="text;html=1;strokeColor=none;fillColor=none;align=center;verticalAlign=middle;whiteSpace=wrap;rounded=0;" parent="1" vertex="1">
          <mxGeometry x="742" y="-107" width="60" height="30" as="geometry" />
        </mxCell>
        <mxCell id="2QGJPH2X2eXKXfC0UT2v-62" value="&lt;b&gt;M&lt;/b&gt;" style="text;html=1;strokeColor=none;fillColor=none;align=center;verticalAlign=middle;whiteSpace=wrap;rounded=0;" parent="1" vertex="1">
          <mxGeometry x="1106.5" y="-110" width="60" height="30" as="geometry" />
        </mxCell>
        <mxCell id="hUSrb9NRgbdeAinimwuL-5" value="&lt;b&gt;N&lt;/b&gt;" style="text;html=1;strokeColor=none;fillColor=none;align=center;verticalAlign=middle;whiteSpace=wrap;rounded=0;" parent="1" vertex="1">
          <mxGeometry x="528" y="181" width="60" height="30" as="geometry" />
        </mxCell>
        <mxCell id="MYLzribXJYFH4d9hLqWY-1" value="AttendenceDate" style="ellipse;whiteSpace=wrap;html=1;rounded=0;" parent="1" vertex="1">
          <mxGeometry x="1220" y="20" width="120" height="60" as="geometry" />
        </mxCell>
        <mxCell id="MYLzribXJYFH4d9hLqWY-10" style="edgeStyle=none;rounded=0;orthogonalLoop=1;jettySize=auto;html=1;exitX=1;exitY=1;exitDx=0;exitDy=0;endArrow=none;endFill=0;" parent="1" edge="1">
          <mxGeometry relative="1" as="geometry">
            <mxPoint x="780.4264068711932" y="-16.78679656440363" as="sourcePoint" />
            <mxPoint x="780.7874629208154" y="-16.968874157565324" as="targetPoint" />
          </mxGeometry>
        </mxCell>
        <mxCell id="MYLzribXJYFH4d9hLqWY-17" value="" style="group" parent="1" vertex="1" connectable="0">
          <mxGeometry x="930" y="-170" width="120" height="60" as="geometry" />
        </mxCell>
        <mxCell id="2QGJPH2X2eXKXfC0UT2v-47" value="Strengths" style="ellipse;whiteSpace=wrap;html=1;rounded=0;fontStyle=1" parent="MYLzribXJYFH4d9hLqWY-17" vertex="1">
          <mxGeometry width="120" height="60" as="geometry" />
        </mxCell>
        <mxCell id="NFmGU6TYqyA8lv-WIc27-5" value="&lt;span style=&quot;font-weight: normal;&quot;&gt;Strengths&lt;/span&gt;" style="ellipse;whiteSpace=wrap;html=1;rounded=0;fontStyle=1" parent="MYLzribXJYFH4d9hLqWY-17" vertex="1">
          <mxGeometry x="3.5" y="2" width="113" height="56.5" as="geometry" />
        </mxCell>
        <mxCell id="MYLzribXJYFH4d9hLqWY-18" value="" style="group" parent="1" vertex="1" connectable="0">
          <mxGeometry x="1250" y="-167" width="120" height="60" as="geometry" />
        </mxCell>
        <mxCell id="2QGJPH2X2eXKXfC0UT2v-45" value="&lt;b&gt;Weaknesses&lt;/b&gt;" style="ellipse;whiteSpace=wrap;html=1;rounded=0;" parent="MYLzribXJYFH4d9hLqWY-18" vertex="1">
          <mxGeometry width="120" height="60" as="geometry" />
        </mxCell>
        <mxCell id="NFmGU6TYqyA8lv-WIc27-7" value="&lt;span style=&quot;font-weight: normal;&quot;&gt;Weaknesses&lt;/span&gt;" style="ellipse;whiteSpace=wrap;html=1;rounded=0;fontStyle=1" parent="MYLzribXJYFH4d9hLqWY-18" vertex="1">
          <mxGeometry x="3.5" y="1.75" width="113" height="56.5" as="geometry" />
        </mxCell>
        <mxCell id="bXbsKiOWPpMgaX-bGDvC-3" value="" style="edgeStyle=none;rounded=0;orthogonalLoop=1;jettySize=auto;html=1;endArrow=none;endFill=0;" edge="1" parent="1" target="bXbsKiOWPpMgaX-bGDvC-4">
          <mxGeometry relative="1" as="geometry">
            <mxPoint x="540" y="240" as="sourcePoint" />
          </mxGeometry>
        </mxCell>
        <mxCell id="bXbsKiOWPpMgaX-bGDvC-4" value="&lt;b&gt;Phone number&lt;br&gt;&lt;/b&gt;" style="ellipse;whiteSpace=wrap;html=1;" vertex="1" parent="1">
          <mxGeometry x="720" y="302" width="120" height="80" as="geometry" />
        </mxCell>
        <mxCell id="bXbsKiOWPpMgaX-bGDvC-5" value="" style="edgeStyle=none;rounded=0;orthogonalLoop=1;jettySize=auto;html=1;endArrow=none;endFill=0;" edge="1" parent="1" target="bXbsKiOWPpMgaX-bGDvC-6">
          <mxGeometry relative="1" as="geometry">
            <mxPoint x="440" y="180" as="sourcePoint" />
          </mxGeometry>
        </mxCell>
        <mxCell id="bXbsKiOWPpMgaX-bGDvC-6" value="&lt;b&gt;Last modified&lt;br&gt;&lt;/b&gt;" style="ellipse;whiteSpace=wrap;html=1;" vertex="1" parent="1">
          <mxGeometry x="307" y="-58" width="120" height="80" as="geometry" />
        </mxCell>
        <mxCell id="bXbsKiOWPpMgaX-bGDvC-7" value="" style="edgeStyle=none;rounded=0;orthogonalLoop=1;jettySize=auto;html=1;endArrow=none;endFill=0;" edge="1" parent="1" target="bXbsKiOWPpMgaX-bGDvC-8">
          <mxGeometry relative="1" as="geometry">
            <mxPoint x="540" y="230" as="sourcePoint" />
          </mxGeometry>
        </mxCell>
        <mxCell id="bXbsKiOWPpMgaX-bGDvC-8" value="&lt;b&gt;Job&lt;br&gt;&lt;/b&gt;" style="ellipse;whiteSpace=wrap;html=1;" vertex="1" parent="1">
          <mxGeometry x="820" y="244" width="120" height="80" as="geometry" />
        </mxCell>
        <mxCell id="bXbsKiOWPpMgaX-bGDvC-9" value="&lt;b&gt;Topic&lt;/b&gt;" style="rounded=0;whiteSpace=wrap;html=1;" vertex="1" parent="1">
          <mxGeometry x="1060" y="-390" width="120" height="60" as="geometry" />
        </mxCell>
        <mxCell id="bXbsKiOWPpMgaX-bGDvC-10" value="" style="edgeStyle=none;rounded=0;orthogonalLoop=1;jettySize=auto;html=1;endArrow=none;endFill=0;exitX=1;exitY=0.25;exitDx=0;exitDy=0;" edge="1" parent="1" target="bXbsKiOWPpMgaX-bGDvC-12">
          <mxGeometry relative="1" as="geometry">
            <mxPoint x="1180" y="-359.5" as="sourcePoint" />
          </mxGeometry>
        </mxCell>
        <mxCell id="bXbsKiOWPpMgaX-bGDvC-11" value="" style="edgeStyle=none;rounded=0;orthogonalLoop=1;jettySize=auto;html=1;endArrow=none;endFill=0;exitX=0.75;exitY=1;exitDx=0;exitDy=0;" edge="1" parent="1" target="bXbsKiOWPpMgaX-bGDvC-13">
          <mxGeometry relative="1" as="geometry">
            <mxPoint x="1180" y="-340" as="sourcePoint" />
          </mxGeometry>
        </mxCell>
        <mxCell id="bXbsKiOWPpMgaX-bGDvC-12" value="&lt;b&gt;Name&lt;br&gt;&lt;/b&gt;" style="ellipse;whiteSpace=wrap;html=1;" vertex="1" parent="1">
          <mxGeometry x="1240" y="-457" width="100" height="57" as="geometry" />
        </mxCell>
        <mxCell id="bXbsKiOWPpMgaX-bGDvC-13" value="&lt;b&gt;&lt;u&gt;ID&lt;/u&gt;&lt;br&gt;&lt;/b&gt;" style="ellipse;whiteSpace=wrap;html=1;" vertex="1" parent="1">
          <mxGeometry x="1260" y="-360" width="100" height="50" as="geometry" />
        </mxCell>
        <mxCell id="bXbsKiOWPpMgaX-bGDvC-14" style="edgeStyle=none;rounded=0;orthogonalLoop=1;jettySize=auto;html=1;endArrow=none;endFill=0;exitX=0.75;exitY=0;exitDx=0;exitDy=0;" edge="1" parent="1" target="bXbsKiOWPpMgaX-bGDvC-15" source="2QGJPH2X2eXKXfC0UT2v-28">
          <mxGeometry relative="1" as="geometry">
            <mxPoint x="768" y="-160" as="sourcePoint" />
          </mxGeometry>
        </mxCell>
        <mxCell id="bXbsKiOWPpMgaX-bGDvC-15" value="&lt;b&gt;Duration&lt;br&gt;&lt;/b&gt;" style="ellipse;whiteSpace=wrap;html=1;" vertex="1" parent="1">
          <mxGeometry x="532" y="-231.07999999999998" width="90" height="40.17" as="geometry" />
        </mxCell>
        <mxCell id="bXbsKiOWPpMgaX-bGDvC-16" style="edgeStyle=none;rounded=0;orthogonalLoop=1;jettySize=auto;html=1;endArrow=none;endFill=0;exitX=0.5;exitY=1;exitDx=0;exitDy=0;" edge="1" parent="1" target="bXbsKiOWPpMgaX-bGDvC-17" source="2QGJPH2X2eXKXfC0UT2v-24">
          <mxGeometry relative="1" as="geometry">
            <mxPoint x="800" y="-210" as="sourcePoint" />
          </mxGeometry>
        </mxCell>
        <mxCell id="bXbsKiOWPpMgaX-bGDvC-17" value="&lt;b&gt;&lt;u&gt;ID&lt;/u&gt;&lt;br&gt;&lt;/b&gt;" style="ellipse;whiteSpace=wrap;html=1;" vertex="1" parent="1">
          <mxGeometry x="640" y="-338.33" width="110" height="48.33" as="geometry" />
        </mxCell>
        <mxCell id="bXbsKiOWPpMgaX-bGDvC-19" style="edgeStyle=orthogonalEdgeStyle;rounded=0;orthogonalLoop=1;jettySize=auto;html=1;exitX=0.5;exitY=1;exitDx=0;exitDy=0;" edge="1" parent="1" source="HzVAY1CZKWsbAnJS4__g-43" target="HzVAY1CZKWsbAnJS4__g-43">
          <mxGeometry relative="1" as="geometry" />
        </mxCell>
        <mxCell id="bXbsKiOWPpMgaX-bGDvC-31" value="" style="edgeStyle=none;rounded=0;orthogonalLoop=1;jettySize=auto;html=1;endArrow=none;endFill=0;exitX=0;exitY=1;exitDx=0;exitDy=0;" edge="1" parent="1" target="bXbsKiOWPpMgaX-bGDvC-32" source="HzVAY1CZKWsbAnJS4__g-42">
          <mxGeometry relative="1" as="geometry">
            <mxPoint x="695" y="10" as="sourcePoint" />
          </mxGeometry>
        </mxCell>
        <mxCell id="bXbsKiOWPpMgaX-bGDvC-32" value="&lt;b&gt;Password&lt;/b&gt;" style="ellipse;whiteSpace=wrap;html=1;rounded=0;" vertex="1" parent="1">
          <mxGeometry x="555" y="-90" width="105" height="50" as="geometry" />
        </mxCell>
        <mxCell id="bXbsKiOWPpMgaX-bGDvC-33" value="" style="edgeStyle=none;rounded=0;orthogonalLoop=1;jettySize=auto;html=1;endArrow=none;endFill=0;exitX=0;exitY=0;exitDx=0;exitDy=0;" edge="1" parent="1" target="bXbsKiOWPpMgaX-bGDvC-34" source="2QGJPH2X2eXKXfC0UT2v-60">
          <mxGeometry relative="1" as="geometry">
            <mxPoint x="782.5" y="-60" as="sourcePoint" />
          </mxGeometry>
        </mxCell>
        <mxCell id="bXbsKiOWPpMgaX-bGDvC-34" value="&lt;b&gt;IsPrivate&lt;/b&gt;" style="ellipse;whiteSpace=wrap;html=1;rounded=0;" vertex="1" parent="1">
          <mxGeometry x="607.5" y="-40" width="105" height="50" as="geometry" />
        </mxCell>
        <mxCell id="bXbsKiOWPpMgaX-bGDvC-35" style="rounded=0;orthogonalLoop=1;jettySize=auto;html=1;entryX=0.5;entryY=0;entryDx=0;entryDy=0;endArrow=none;endFill=0;exitX=1;exitY=0.75;exitDx=0;exitDy=0;" edge="1" parent="1" target="bXbsKiOWPpMgaX-bGDvC-37" source="HzVAY1CZKWsbAnJS4__g-31">
          <mxGeometry relative="1" as="geometry">
            <mxPoint x="860" y="-530" as="sourcePoint" />
          </mxGeometry>
        </mxCell>
        <mxCell id="bXbsKiOWPpMgaX-bGDvC-36" value="" style="edgeStyle=none;rounded=0;orthogonalLoop=1;jettySize=auto;html=1;endArrow=none;endFill=0;shape=link;exitX=0.5;exitY=0;exitDx=0;exitDy=0;" edge="1" parent="1" source="bXbsKiOWPpMgaX-bGDvC-9">
          <mxGeometry relative="1" as="geometry">
            <mxPoint x="1350" y="-549" as="sourcePoint" />
            <mxPoint x="1120" y="-390" as="targetPoint" />
          </mxGeometry>
        </mxCell>
        <mxCell id="bXbsKiOWPpMgaX-bGDvC-37" value="&lt;b&gt;Contains&lt;/b&gt;" style="rhombus;whiteSpace=wrap;html=1;rounded=0;" vertex="1" parent="1">
          <mxGeometry x="1080" y="-520" width="80" height="80" as="geometry" />
        </mxCell>
      </root>
    </mxGraphModel>
  </diagram>
</mxfile>
